<?xml version="1.0" encoding="utf-8"?>
<!-- Generator: Adobe Illustrator 22.1.0, SVG Export Plug-In . SVG Version: 6.00 Build 0)  -->
<svg version="1.1" id="Calque_1" xmlns="http://www.w3.org/2000/svg" xmlns:xlink="http://www.w3.org/1999/xlink" x="0px" y="0px"
	 viewBox="0 0 430 430" style="enable-background:new 0 0 430 430;" xml:space="preserve">
<style type="text/css">
	.st0{stroke:#000000;stroke-width:13;stroke-miterlimit:10;}
</style>
<path d="M293.5,423.4c-2.2,0-4.3-1-5.6-2.9c-2.5-3.6-24.7-35.6-28.3-50c-2.1-8.5-7.1-21.4-10.3-29.4c-10.3,6.3-26.1,16.8-32.2,25
	c-11.9,15.9-24.5,16.4-25.9,16.4c-2.1,0-4-0.9-5.3-2.6c-0.6-0.8-15.1-19.2-15.1-45.2c0-9.8-36.3-21.2-71.7-26.3v13.9l26,35.7
	c1.4,2,1.7,4.5,0.7,6.7c-1,2.2-3,3.8-5.4,4.1l-54.6,6.8c-2.1,0.2-4.2-0.5-5.7-1.9c-0.9-0.9-21.8-22-29-47.3
	c-5.8-20.4-9.2-38.1-10.1-43.4l-19.5-26c-1.3-1.7-1.7-3.8-1.1-5.9c0.5-2,2-3.7,3.9-4.5c25.2-10.8,28.7-10.8,30-10.8
	c5.6,0,9.6,4.9,11.7,8.5c12.7,6,32.9,12.8,39.8,9.3c2.4-4.2-5.3-27.5-16.6-48.7c-0.9-1.8-1.1-3.9-0.3-5.7c0.7-1.9,2.3-3.3,4.2-3.9
	l20.5-6.8c1.2-0.4,1.4-0.8,1.6-1.4c2.5-7.8-9.6-30.1-18.6-42.7c-1.2-1.6-1.6-3.7-1.1-5.6c0.5-1.9,1.8-3.6,3.6-4.5l27.3-13.7
	c1.6-0.8,2.3-1.5,2.4-1.7c-0.2-0.6-2.1-2.8-3.4-3.8c-2.2-1.6-3.2-4.4-2.5-7.1c0.6-2.7,2.8-4.7,5.5-5.1l41-6.8
	c0.6-0.1,1.3-0.1,1.9-0.1l18.7,2.1c3.7,0.4,2.2,14-1.5,13.6l-17.8-2l-29.1,4.8c0.6,1.8,1,3.8,0.8,5.9c-0.3,3.6-2.3,8.6-9.8,12.4
	l-20.3,10.2c7.6,11.8,20.5,34.7,16,48.3c-1.6,5-5.2,8.5-10.3,10.2l-13,4.3c6.5,13.4,17.8,39.3,13.7,52.1c-1.5,4.7-4.4,6.9-6.7,8.1
	c-15.9,7.9-47.7-7.1-53.9-10.2c-1.3-0.7-2.4-1.7-3.1-3.1c-0.5-0.9-1.2-2-1.8-2.8c-2.7,0.9-8.9,3.3-15.5,6L32.8,276
	c0.7,0.9,1.1,1.9,1.3,3c0,0.2,3.4,20.4,10.1,43.6c5,17.4,18.1,33.2,23.3,39l39.7-5l-20.5-28.2c-0.8-1.2-1.3-2.6-1.3-4v-23.9
	c0-2,0.8-3.8,2.3-5.1c1.5-1.3,3.4-1.9,5.3-1.7c21.4,2.6,91.3,13.1,91.3,40.9c0,15.4,6.3,27.7,9.8,33.3c2.8-1.1,7.3-3.8,12-10.1
	c11-14.6,41.8-31.9,43.1-32.6c1.7-0.9,3.7-1.1,5.5-0.5c1.8,0.6,3.3,2,4.1,3.8c0.4,1,10.5,24.6,14,38.6c1.5,5.9,8,17.3,14.4,27.5
	c2.4-8,7.6-15.3,17.8-18.7l12.4-4.1l-15.5-25.8c-4.7-4-11.1-10.9-8.6-17.8c1.7-4.8,6.3-7.2,13.9-7.2c11.7,0,21.9-11.1,23.9-14.6
	v-46.8c0-0.4,0-0.8,0.1-1.1c0.1-0.9,3.6-21.1,10.4-45.1c6-20.9-2.9-39.3-3-39.5c-0.9-1.9-0.9-4-0.1-5.9c0.9-1.9,2.5-3.2,4.5-3.7
	c1.3-0.3,31.2-7.6,47.4,8.6c4.7,4.7,9.3,7.5,13.1,9.2l-4.1-16.3c-0.5-1.8-0.2-3.7,0.8-5.3l12.7-20.4l-59.5-23.8h-60.1l-20.5-0.6
	c-3.3-0.1-5.9-2.5-6.5-5.5c-0.1-0.5-0.1-1-0.1-1.5c0.1-3.8,3.3-6.5,7-6.6l20.3,0.6h61.2c0.9,0,1.7,0.2,2.5,0.5l68.3,27.3
	c1.9,0.8,3.3,2.3,4,4.2c0.6,1.9,0.4,4-0.7,5.7l-15.5,24.8l6.1,24.5c0.5,2,0.1,4.2-1.2,5.9c-1.3,1.7-3.3,2.6-5.4,2.6
	c-0.7,0-16.7-0.2-32.1-15.6c-6.5-6.5-18.3-7-26.8-6.3c2.7,9,5.5,24.1,0.7,40.8c-6,21.1-9.4,39.7-10,43.1v47.2
	c0,8.2-16.6,25.7-35.1,27.2c0.6,0.6,1.2,1.1,1.8,1.6c0.6,0.5,1.2,1.1,1.6,1.8l20.5,34.1c1.1,1.8,1.3,3.9,0.5,5.9
	c-0.7,1.9-2.3,3.5-4.2,4.1l-20.5,6.8c-14.2,4.7-9.4,25.2-9.2,26c0.8,3.2-0.8,6.5-3.8,7.8C295.4,423.2,294.4,423.4,293.5,423.4z"/>
<path class="st0" d="M170,105.1c0,0,60.5,4.6,109,3.5"/>
</svg>
