<svg height="511pt" viewBox="1 -90 511.99898 511" width="511pt" xmlns="http://www.w3.org/2000/svg"><path d="m80.59375 277.679688c2.453125 8.015624 10.113281 13.613281 18.625 13.613281h243.289062c4.238282 0 7.675782-3.4375 7.675782-7.675781 0-4.238282-3.4375-7.675782-7.675782-7.675782h-243.289062c-1.824219 0-3.445312-1.132812-3.941406-2.757812-5.605469-18.296875-20.699219-32.136719-39.394532-36.125-1.976562-.417969-3.355468-2.105469-3.355468-4.097656v-87.144532c0-4.238281-3.4375-7.675781-7.679688-7.675781-4.238281 0-7.675781 3.4375-7.675781 7.675781v87.144532c0 9.160156 6.523437 17.199218 15.511719 19.117187 13.246094 2.820313 23.941406 12.632813 27.910156 25.601563zm0 0"/><path d="m431.40625 53.523438c-2.453125-8.019532-10.113281-13.617188-18.625-13.617188h-313.5625c-8.511719 0-16.167969 5.597656-18.625 13.617188-3.96875 12.96875-14.664062 22.777343-27.910156 25.601562-8.988282 1.914062-15.511719 9.953125-15.511719 19.117188v16.867187c0 4.238281 3.4375 7.675781 7.675781 7.675781 4.242188 0 7.679688-3.4375 7.679688-7.675781v-16.867187c0-1.992188 1.378906-3.679688 3.355468-4.101563 18.695313-3.984375 33.792969-17.828125 39.394532-36.121094.496094-1.625 2.117187-2.757812 3.941406-2.757812h313.5625c1.824219 0 3.445312 1.132812 3.945312 2.757812 5.601563 18.292969 20.695313 32.136719 39.390626 36.121094 1.976562.421875 3.359374 2.109375 3.359374 4.101563v134.71875c0 1.992187-1.382812 3.679687-3.359374 4.097656-18.695313 3.988281-33.789063 17.828125-39.390626 36.125-.5 1.621094-2.117187 2.757812-3.945312 2.757812h-39.566406c-4.242188 0-7.675782 3.4375-7.675782 7.675782 0 4.238281 3.433594 7.675781 7.675782 7.675781h39.566406c8.511719 0 16.171875-5.597657 18.625-13.613281 3.96875-12.96875 14.664062-22.78125 27.914062-25.605469 8.984376-1.914063 15.507813-9.953125 15.507813-19.113281v-134.71875c0-9.164063-6.523437-17.203126-15.507813-19.117188-13.25-2.824219-23.945312-12.632812-27.914062-25.601562zm0 0"/><path d="m477.511719.5h-177.269531c-4.238282 0-7.675782 3.4375-7.675782 7.675781s3.4375 7.675781 7.675782 7.675781h177.269531c10.550781 0 19.136719 8.585938 19.136719 19.136719v261.226563c0 10.550781-8.585938 19.132812-19.136719 19.132812h-443.023438c-10.550781 0-19.136719-8.582031-19.136719-19.132812v-261.226563c0-10.554687 8.585938-19.136719 19.136719-19.136719h235.050781c4.238282 0 7.675782-3.4375 7.675782-7.675781s-3.4375-7.675781-7.675782-7.675781h-235.050781c-19.015625 0-34.488281 15.46875-34.488281 34.488281v261.226563c0 19.015625 15.472656 34.488281 34.488281 34.488281h443.023438c19.015625 0 34.488281-15.472656 34.488281-34.488281v-261.226563c0-19.019531-15.472656-34.488281-34.488281-34.488281zm0 0"/><path d="m60.546875 48.699219c0 5.386719-4.367187 9.753906-9.753906 9.753906-5.390625 0-9.757813-4.367187-9.757813-9.753906 0-5.390625 4.367188-9.757813 9.757813-9.757813 5.386719 0 9.753906 4.367188 9.753906 9.757813zm0 0"/><path d="m470.964844 48.699219c0 5.386719-4.367188 9.753906-9.757813 9.753906-5.386719 0-9.753906-4.367187-9.753906-9.753906 0-5.390625 4.367187-9.757813 9.753906-9.757813 5.390625 0 9.757813 4.367188 9.757813 9.757813zm0 0"/><path d="m60.546875 282.503906c0 5.386719-4.367187 9.757813-9.753906 9.757813-5.390625 0-9.757813-4.371094-9.757813-9.757813 0-5.390625 4.367188-9.757812 9.757813-9.757812 5.386719 0 9.753906 4.367187 9.753906 9.757812zm0 0"/><path d="m470.964844 282.503906c0 5.386719-4.367188 9.757813-9.757813 9.757813-5.386719 0-9.753906-4.371094-9.753906-9.757813 0-5.390625 4.367187-9.757812 9.753906-9.757812 5.390625 0 9.757813 4.367187 9.757813 9.757812zm0 0"/><path d="m348.121094 165.601562c0-50.796874-41.328125-92.121093-92.121094-92.121093-50.796875 0-92.121094 41.324219-92.121094 92.121093 0 50.792969 41.324219 92.121094 92.121094 92.121094 50.792969 0 92.121094-41.328125 92.121094-92.121094zm-168.890625 0c0-42.332031 34.441406-76.769531 76.769531-76.769531s76.765625 34.4375 76.765625 76.769531c0 42.328126-34.4375 76.765626-76.765625 76.765626s-76.769531-34.4375-76.769531-76.765626zm0 0"/><path d="m137.230469 165.601562c0-13.828124-11.25-25.078124-25.078125-25.078124s-25.078125 11.25-25.078125 25.078124c0 13.824219 11.25 25.074219 25.078125 25.074219s25.078125-11.246093 25.078125-25.074219zm-34.800781 0c0-5.363281 4.359374-9.726562 9.722656-9.726562 5.359375 0 9.722656 4.363281 9.722656 9.726562 0 5.359376-4.363281 9.722657-9.722656 9.722657-5.363282 0-9.722656-4.363281-9.722656-9.722657zm0 0"/><path d="m424.925781 165.601562c0-13.828124-11.25-25.078124-25.078125-25.078124s-25.078125 11.25-25.078125 25.078124c0 13.824219 11.25 25.074219 25.078125 25.074219s25.078125-11.246093 25.078125-25.074219zm-34.800781 0c0-5.363281 4.363281-9.726562 9.722656-9.726562 5.363282 0 9.722656 4.363281 9.722656 9.726562 0 5.359376-4.359374 9.722657-9.722656 9.722657-5.359375 0-9.722656-4.363281-9.722656-9.722657zm0 0"/><path d="m261.585938 224.414062c0 4.234376 3.441406 7.675782 7.675781 7.675782s7.675781-3.441406 7.675781-7.675782v-11.046874c9.941406-4.203126 15.1875-13.660157 15.1875-27.398438 0-11.300781-1.84375-19.484375-10.757812-24.867188 5.429687-4.367187 8.398437-11.847656 8.398437-21.285156 0-11.1875-4.316406-18.691406-12.828125-22.316406v-10.710938c0-4.234374-3.441406-7.675781-7.675781-7.675781s-7.675781 3.441407-7.675781 7.675781v8.054688c-.78125-.011719-.660157-.007812-11.175782-.007812v-8.046876c0-4.234374-3.445312-7.675781-7.675781-7.675781-4.234375 0-7.679687 3.441407-7.679687 7.675781v8.046876h-7.640626c-4.15625 0-7.539062 3.382812-7.539062 7.542968s3.382812 7.542969 7.539062 7.542969h3.082032v70.796875h-3.082032c-4.15625 0-7.539062 3.382812-7.539062 7.542969 0 4.160156 3.382812 7.542969 7.539062 7.542969h7.640626v8.609374c0 4.234376 3.445312 7.679688 7.679687 7.679688 4.230469 0 7.675781-3.445312 7.675781-7.679688v-8.609374h11.175782zm-14.957032-94.496093c17.261719-.066407 27.003906-1.421875 27.003906 11.472656 0 15.066406-9.996093 12.886719-27.003906 12.785156zm0 70.800781v-32.25c21.039063 0 29.363282-2.464844 29.363282 16.847656 0 10.507813-4.519532 15.402344-14.222657 15.402344zm0 0"/></svg>